<?xml version="1.0" encoding="utf-8" ?><svg xmlns="http://www.w3.org/2000/svg" xmlns:xlink="http://www.w3.org/1999/xlink" width="1024" height="1024" viewBox="0 0 1024 1024"><path transform="scale(2 2)" d="M407.38 140.938C392.291 142.023 379.19 130.648 378.146 115.557C377.102 100.465 388.512 87.3946 403.607 86.3915C418.643 85.3922 431.653 96.7494 432.693 111.783C433.733 126.817 422.411 139.858 407.38 140.938ZM403.409 95.4315C393.447 96.5543 386.246 105.488 387.264 115.461C388.281 125.435 397.139 132.73 407.122 131.817C413.675 131.218 419.4 127.146 422.116 121.152C424.831 115.159 424.118 108.169 420.248 102.848C416.378 97.5268 409.948 94.6946 403.409 95.4315Z"/><path transform="scale(2 2)" d="M186.366 103.893C210.892 93.5155 226.496 88.0482 254.381 86.5535C270.994 86.499 283.378 87.5717 299.637 91.6041C418.459 121.072 464.218 269.583 381.55 360.305C351.657 393.761 305.92 414.282 261.069 414.427C256.278 414.442 251.39 414.191 246.624 414.422C243.13 413.452 239.605 413.2 236.044 412.697C175.982 404.222 124.401 362.369 103.39 305.735C101.086 299.525 99.5434 293.125 97.8459 286.712C75.1273 283.335 71.7855 253.933 95.0674 247.018C94.0997 236.906 97.4729 219.274 99.9733 209.348C108 177.482 134.867 134.968 164.204 117.764C162.75 103.386 174.866 97.7865 186.366 103.893ZM252.899 95.7486C231.714 97.3863 211.076 101.539 192.101 111.67C191.809 125.788 181.728 134.482 168.597 125.944C138.633 144.906 114.862 183.025 107.448 216.967C105.573 225.554 103.409 238.314 103.821 247.018C116.989 251.317 122.986 264.149 116.255 276.607C113.861 281.038 110.549 282.576 106.655 285.374C122.333 347.376 171.05 392.352 234.403 403.29C239.747 404.213 245.489 404.735 250.904 405.315C294.922 405.84 335.804 393.323 367.757 361.529C468.311 261.474 396.398 92.0866 252.899 95.7486ZM176.5 110.297C173.89 111.082 172.379 113.803 173.092 116.434C173.806 119.065 176.484 120.65 179.134 120.009C180.914 119.578 182.319 118.215 182.804 116.449C183.288 114.683 182.776 112.794 181.466 111.515C180.155 110.236 178.254 109.769 176.5 110.297ZM96.7934 255.992C90.9533 257.255 87.2437 263.015 88.5083 268.855C89.7728 274.695 95.5326 278.404 101.373 277.138C107.211 275.873 110.919 270.115 109.655 264.276C108.391 258.437 102.633 254.728 96.7934 255.992Z"/><path transform="scale(2 2)" d="M407.02 109.548C404.808 109.181 402.776 109.698 400.688 108.511C395.889 105.782 399.05 101.532 403.731 100.561C415.01 99.2573 424.995 115.876 414.495 118.855C407.621 118.429 412.26 113.451 407.02 109.548Z"/><path transform="scale(2 2)" d="M182.588 330.206C113.788 263.676 156.816 148.942 252.899 140.992C312.512 139.815 358.785 179.166 367.402 238.694C381.174 244.453 379.364 262.149 367.402 265.438C358.308 312.431 327.539 349.657 278.949 359.082C274.395 359.965 269.698 360.329 265.168 361.258C240.361 360.288 234.482 360 209.52 350.712C198.052 364.858 170.752 352.09 182.588 330.206ZM256.339 150.194C168.211 150.88 125.274 261.344 188.847 323.93C201.899 320.811 214.945 327.193 213.046 342.022C226.907 348.384 238.556 351.565 254.005 352.017C258.629 352.153 264.026 351.545 268.309 351.967C272.73 350.732 277.218 350.135 281.642 349.047C316.898 340.382 345.512 312.884 355.358 277.887C356.513 273.778 356.898 269.457 358.385 265.438C346.127 260.108 345.042 243.967 358.385 238.694C357.215 232.549 356.21 226.825 354.323 220.897C341.496 180.611 299.595 146.622 256.339 150.194ZM361.944 247.117C359.251 247.656 357.502 250.272 358.032 252.966C358.563 255.661 361.173 257.418 363.869 256.896C366.577 256.372 368.344 253.747 367.811 251.041C367.278 248.335 364.648 246.576 361.944 247.117ZM194.997 332.21C190.796 332.932 187.977 336.925 188.704 341.125C189.431 345.325 193.428 348.138 197.627 347.405C201.818 346.674 204.625 342.686 203.899 338.494C203.174 334.302 199.19 331.49 194.997 332.21Z"/><path transform="scale(2 2)" d="M248.954 196.38C248.555 192.711 247.964 188.818 251.871 187.031C258.466 186.313 257.884 191.697 257.915 196.38C268.85 196.324 284.102 202.727 291.244 211.078C293.72 208.696 300.193 201.585 303.204 209.919C304.18 212.62 299.29 215.896 297.54 218.185C304.116 228.188 306.43 233.7 307.668 245.688C310.091 245.716 315.547 245.084 317.709 246.558C319.934 247.907 319.865 252.472 317.541 253.658C315.057 254.925 310.517 254.598 307.668 254.735C305.483 267.845 303.369 272.425 295.54 283.211C296.991 285.079 301.957 289.306 301.718 291.62C300.651 301.943 292.369 293.674 289.209 290.299C278.498 298.726 271.819 300.629 258.954 303.326C259.017 306.271 259.382 308.909 257.915 311.474C251.807 318.793 249.941 308.573 249.934 303.326C237.262 301.182 231.938 299.445 221.17 291.842C215.232 300.381 204.39 296.221 214.544 285.374C205.897 275.875 202.504 267.261 201.062 254.735C198.202 254.773 186.187 255.939 191.047 247.316C192.161 245.339 198.521 245.68 201.062 245.688C200.791 237.304 205.283 224.383 210.897 218.185C208.872 216.115 199.595 208.197 209.637 205.696C211.18 205.311 215.788 209.802 217.277 211.078C224.608 202.758 238.034 197.404 248.954 196.38ZM251.487 205.214C227.003 206.72 208.371 227.781 209.861 252.265C211.35 276.75 232.398 295.397 256.883 293.924C281.393 292.45 300.062 271.377 298.571 246.869C297.08 222.36 275.994 203.706 251.487 205.214Z"/><path transform="scale(2 2)" d="M257.875 286.688C237.453 288.694 219.268 273.775 217.243 253.356C215.218 232.936 230.119 214.737 250.537 212.692C270.982 210.645 289.212 225.571 291.239 246.018C293.267 266.465 278.324 284.68 257.875 286.688ZM251.939 221.726C236.484 222.998 224.995 236.573 226.295 252.026C227.595 267.48 241.19 278.944 256.641 277.617C272.053 276.293 283.483 262.74 282.186 247.325C280.89 231.91 267.356 220.456 251.939 221.726Z"/><path transform="scale(2 2)" d="M112.132 424.991C98.4246 427.089 85.6071 417.691 83.4855 403.988C81.3639 390.284 90.7395 377.45 104.44 375.305C118.173 373.155 131.045 382.558 133.172 396.295C135.298 410.032 125.873 422.888 112.132 424.991ZM105.023 384.255C96.3386 386.097 90.7556 394.587 92.5055 403.291C94.2554 411.994 102.686 417.667 111.408 416.009C117.132 414.921 121.831 410.842 123.712 405.327C125.594 399.812 124.367 393.711 120.5 389.352C116.634 384.992 110.723 383.046 105.023 384.255Z"/></svg>