<?xml version="1.0" encoding="utf-8" ?><svg xmlns="http://www.w3.org/2000/svg" xmlns:xlink="http://www.w3.org/1999/xlink" width="2048" height="2048" viewBox="0 0 2048 2048"><path fill="white" d="M1165.01 494.568C1169.61 496.87 1237.4 642.062 1245.73 659.423L1400.18 980.521C1422.46 1026.73 1446.14 1079.27 1469.83 1124.03C1434.62 1111.44 1364.81 1091.9 1336.94 1073.44C1325.33 1065.75 1277.68 960.716 1268.72 942.19C1232.69 867.981 1196.28 793.96 1159.48 720.131C1156.58 752.771 1158.16 814.34 1158.82 848.543C1158.98 856.719 1183.76 906.837 1189.12 918.33L1251.98 1052.5C1230.66 1101.77 1204.47 1150.96 1181.76 1199.62L1324.9 1131.09C1340.06 1135.24 1366.33 1145.2 1381.74 1150.51C1420.26 1163.74 1458.72 1177.18 1497.1 1190.82C1516.39 1227.83 1534.39 1266.51 1552.4 1304.25C1567.33 1336.61 1584.38 1370.17 1600 1402.43L1675.41 1558.18L1602.88 1533.46C1592.21 1529.8 1545.99 1514.45 1538.92 1507.67C1527.05 1496.26 1500.92 1436.33 1492.92 1420.27C1479.8 1393.95 1468.83 1369.54 1456.12 1343.94C1444.43 1320.39 1433.93 1297.65 1422.12 1274.84C1390.3 1261.49 1357.94 1251.7 1326.38 1239.05C1262.71 1266.86 1199.82 1296.46 1135.91 1324.04C1126.63 1340.8 1118.61 1358.46 1109.92 1375.55C1087.67 1419.26 1066.87 1464.4 1044.11 1507.77C1043.62 1458.21 1047.74 1407.97 1049.61 1358.4C1050.54 1333.92 1050.75 1248.63 1056.39 1230.73C1061.49 1214.51 1072 1198.02 1079.27 1182.47L1143.94 1046.03C1115.9 984.162 1083.06 924.476 1055.81 862.341C1052.56 854.922 1054.53 818.081 1054.53 807.312L1054.23 754.732C1054.17 746.837 1053.4 723.947 1055.75 717.975C1064.72 695.117 1079.15 667.885 1090.02 645.995L1165.01 494.568Z"/><path fill="white" d="M883.43 494.359C884.215 494.75 884.59 494.863 885.24 495.607C892.783 504.236 993.374 713.2 994.63 720.926C997.043 735.777 995.187 751.983 994.968 767.006C994.516 798.01 993.536 829.677 995.979 860.605C965.494 922.017 935.623 983.731 906.371 1045.74C933.641 1107.42 965.178 1167.19 992.316 1228.78C994.797 1234.41 996.181 1292.13 996.62 1302.76C999.812 1371.38 1002.16 1440.03 1003.67 1508.7C994.747 1492.22 985.264 1470.71 976.807 1453.36C956.086 1410.04 934.495 1367.15 912.047 1324.7C855.454 1295.85 785.098 1265.83 726.569 1239.14C694.853 1252.25 659.701 1262.18 627.463 1274.87C617.602 1293.12 607.582 1315.02 598.417 1333.8C572.929 1386.03 547.904 1438.62 522.327 1490.81C519.822 1495.92 514.408 1505.21 509.821 1508.16C492.953 1518.98 469.728 1525.67 450.821 1532.21C425.803 1540.99 400.665 1549.43 375.415 1557.52C417.088 1475.89 456.536 1389.33 496.26 1306.38C514.001 1268.07 533.958 1228.96 552.232 1190.59C608.555 1172.37 670.246 1150.83 726.099 1130.88C742.388 1137.46 764.614 1148.73 780.605 1156.62L868.692 1200.56C862.077 1185.01 851.76 1165.32 844.266 1149.82L797.211 1052.62L859.528 919.241C868.857 899.166 884.509 868.285 890.723 847.752C892.47 841.978 891.631 808.404 891.507 799.956L890.018 719.895C847.714 800.951 810.262 884.435 769.679 966.365C763.552 978.734 722.376 1068.14 714.884 1072.23C678.506 1092.05 622.498 1111.4 581.764 1123.28C611.595 1057.82 645.886 989.187 677.262 924.166L811.384 644.582C835.025 595.479 860.984 543.793 883.43 494.359Z"/></svg>