<?xml version="1.0" encoding="utf-8" ?><svg xmlns="http://www.w3.org/2000/svg" xmlns:xlink="http://www.w3.org/1999/xlink" width="1024" height="1024" viewBox="0 0 1024 1024"><path fill="white" transform="scale(2 2)" d="M258.062 99.4026C249.445 99.8827 248.486 91.1503 255.717 90.3666C257.47 90.1554 257.908 90.2035 259.64 90.3666C263.417 93.4225 262.976 98.0978 258.062 99.4026Z"/><path fill="white" transform="scale(2 2)" d="M90.5219 238.773C92.0332 231.923 92.8005 224.945 94.445 218.108C110.154 152.801 166.617 99.8211 233.921 91.5966C240.073 90.9479 244.778 99.2098 232.018 101.18C163.071 111.824 107.583 169.268 100.144 238.773C113.884 244.486 112.784 261.934 99.3025 268.064C102.383 299.083 117.339 340.378 141.212 362.055C142.383 361.377 143.569 360.702 144.745 360.093C164.742 349.74 184.207 369.477 176.439 391.235C203.638 405.211 229.67 413.342 260.758 412.144C402.044 406.697 464.557 235.571 361.686 141.173C346.296 151.678 329.43 139.077 332.616 119.542C311.278 109.872 300.911 104.66 276.258 100.469C272.647 99.8551 273.426 93.0823 275.82 92.457C281.22 91.0464 291.528 94.1377 296.861 95.4282C313.502 99.8249 322.737 104.331 337.725 111.882C354.44 98.6278 374.791 113.6 367.554 134.462C372.04 137.75 376.346 142.692 380.017 146.758C426.493 198.814 434.601 272.49 402.009 333.632C360.727 411.077 267.586 441.725 187.799 407.121C181.876 404.553 176.123 401.633 170.366 398.645C149.171 414.827 123.175 394.163 134.882 368.908C130.583 363.388 125.72 358.6 121.484 352.783C104.301 329.188 91.418 297.546 90.5219 268.064C71.2283 262.636 78.5896 238.826 90.5219 238.773ZM349.547 116.383C346.106 116.765 343.136 118.967 341.77 122.149C340.404 125.33 340.853 129 342.946 131.759C345.038 134.517 348.452 135.938 351.883 135.48C357.109 134.782 360.799 130.008 360.159 124.776C359.519 119.543 354.786 115.8 349.547 116.383ZM93.459 246.858C89.8798 247.294 87.3407 250.562 87.8023 254.138C88.2639 257.714 91.5496 260.23 95.1222 259.743C98.6593 259.26 101.145 256.015 100.688 252.474C100.231 248.934 97.0025 246.426 93.459 246.858ZM152.772 366.87C145.05 368.123 139.789 375.375 140.995 383.104C142.2 390.833 149.419 396.139 157.155 394.982C164.96 393.815 170.323 386.518 169.107 378.721C167.892 370.923 160.561 365.605 152.772 366.87Z"/><path fill="white" transform="scale(2 2)" d="M367.554 275.681C360.935 273.422 364.065 267.02 364.206 261.44C365.827 197.138 314.874 145.098 249.055 148.523C243.59 148.807 241.75 140.073 250.454 139.255C315.549 138.959 369.487 183.461 373.348 250.321C373.669 255.867 375.872 275.719 367.554 275.681Z"/><path fill="white" transform="scale(2 2)" d="M225.839 152.625C220.731 153.422 216.122 145.374 228.897 143.324C234.17 142.785 238.073 149.631 225.839 152.625Z"/><path fill="white" transform="scale(2 2)" d="M202.765 161.576C195.297 161.21 197.382 153.797 206.185 151.272C214.553 152.028 210.062 159.041 202.765 161.576Z"/><path fill="white" transform="scale(2 2)" d="M183.462 175.41C175.03 176.466 177.914 167.95 185.327 164.263C195.145 164.209 188.782 172.651 183.462 175.41Z"/><path fill="white" transform="scale(2 2)" d="M258.372 332.526C216.132 333.901 180.793 300.737 179.486 258.495C178.18 216.253 211.401 180.968 253.645 179.73C295.792 178.494 330.979 211.623 332.283 253.768C333.586 295.913 300.515 331.154 258.372 332.526ZM251.811 188.97C214.735 191.224 186.498 223.092 188.721 260.169C190.945 297.246 222.788 325.51 259.867 323.318C296.99 321.123 325.295 289.233 323.069 252.112C320.843 214.991 288.93 186.712 251.811 188.97Z"/><path fill="white" transform="scale(2 2)" d="M166.746 194.726C156.981 197.075 161.278 185.733 166.746 182.287C177.317 181.442 171.133 191.224 166.746 194.726Z"/><path fill="white" transform="scale(2 2)" d="M153.053 216.513C144.436 215.556 150.145 205.528 154.082 203.726C161.833 203.664 158.58 215.356 153.053 216.513Z"/><path fill="white" transform="scale(2 2)" d="M268.253 218.47C271.54 216.716 273.206 216.205 276.904 215.852C287.601 216.646 292.316 225.145 289.479 234.999C290.365 236.686 291.232 238.341 292.042 240.079C307.349 272.913 271.246 307.158 238.428 290.758C237.507 290.298 237.053 290.833 236.151 291.27C222.988 294.029 213.466 282.637 220.003 269.948C209.321 246.707 226.679 219.798 251.364 216.681C256.153 216.076 263.906 216.136 268.253 218.47ZM276.304 224.859C274.586 225.018 273.088 226.093 272.388 227.671C271.689 229.248 271.897 231.08 272.933 232.46C273.969 233.84 275.67 234.552 277.38 234.32C279.948 233.973 281.766 231.637 281.473 229.063C281.181 226.489 278.884 224.621 276.304 224.859ZM255.717 225.357C240.219 226.283 226.495 238.117 226.314 254.376C226.279 257.522 226.611 260.624 226.525 263.775C240.186 263.152 248.783 268.427 245.136 283.577C249.535 285.017 253.388 285.804 258.062 285.716C278.884 284.153 293.578 260.809 282.737 242.571C270.363 245.735 261.195 238.739 263.283 226.193C260.759 225.741 258.291 225.356 255.717 225.357ZM231.227 273.099C228.674 273.591 226.996 276.049 227.465 278.606C227.935 281.163 230.378 282.864 232.939 282.417C235.532 281.964 237.259 279.483 236.783 276.894C236.308 274.305 233.812 272.601 231.227 273.099Z"/><path fill="white" transform="scale(2 2)" d="M146.949 239.697C138.485 241.551 140.401 229.3 144.481 227.289C153.267 226.864 150.509 237.436 146.949 239.697Z"/><path fill="white" transform="scale(2 2)" d="M249.612 371.428C248.069 371.625 246.698 371.769 245.137 371.667C188.982 368.015 141.41 320.832 138.606 264.424C138.391 260.105 136.926 254.667 141.212 252.281C149.458 251.211 147.251 262.263 147.865 268.399C152.877 318.794 196.14 359.536 246.447 362.751C253.957 363.231 254.164 370.023 249.612 371.428Z"/><path fill="white" transform="scale(2 2)" d="M362.51 300.256C354.06 300.643 356.25 289.495 361.686 287.014C370.275 286.223 367.157 298.51 362.51 300.256Z"/><path fill="white" transform="scale(2 2)" d="M351.572 322.097C343.392 323.722 344.522 313.04 350.47 310.28C359.791 309.817 356.906 318.676 351.572 322.097Z"/><path fill="white" transform="scale(2 2)" d="M335.752 340.332C327.296 340.444 329.218 331.938 335.752 329.015C343.798 329.046 342.091 337.277 335.752 340.332Z"/><path fill="white" transform="scale(2 2)" d="M315.59 355.54C308.161 355.637 308.599 348.054 316.803 344.254C325.641 343.635 323.696 351.414 315.59 355.54Z"/><path fill="white" transform="scale(2 2)" d="M294.092 365.243C288.693 366.417 283.928 358.074 295.243 355.54C301.709 354.947 303.658 362.383 294.092 365.243Z"/><path fill="white" transform="scale(2 2)" d="M273.1 370.799C264.669 372.365 262.819 362.97 270.713 362.055C278.604 359.695 280.877 368.468 273.1 370.799Z"/></svg>